# xmcd CD database file
#
# Track frame offsets:
#	183
#	17850
#	37288
#	56435
#	72248
#	89080
#	107218
#	116888
#	129235
#	144403
#	162020
#	181743
#	199373
#	218143
#
# Disc length: 3264 seconds
#
# Revision: 6
# Processed by: cddbd v1.5.2PL0 Copyright (c) Steve Scherf et al.
# Submitted via: CDex 1.81
#
DISCID=d10cbe0e
DTITLE=Condor - Machu Picchu Vol. IV
DYEAR=1992
DGENRE=Folklore
TTITLE0=Purimuy
TTITLE1=Aguas Claras
TTITLE2=Carnaval de Cajamaraca and Pinkullito
TTITLE3=Yamor
TTITLE4=Kullakita
TTITLE5=Pajarillos de Huancane
TTITLE6=Chokelas
TTITLE7=Pequeno Juanito
TTITLE8=Todas las Sangres
TTITLE9=Corazon Entresticido
TTITLE10=Cuando Floresca el Chuno
TTITLE11=Acomayo
TTITLE12=Vaso de Cerveza
TTITLE13=Guajira (Guantanamera)
EXTD=YEAR: 1992
EXTT0=
EXTT1=
EXTT2=
EXTT3=
EXTT4=
EXTT5=
EXTT6=
EXTT7=
EXTT8=
EXTT9=
EXTT10=
EXTT11=
EXTT12=
EXTT13=
PLAYORDER=
